<?xml version="1.0" encoding="iso-8859-1"?>
<!-- Generator: Adobe Illustrator 16.0.0, SVG Export Plug-In . SVG Version: 6.00 Build 0)  -->
<!DOCTYPE svg PUBLIC "-//W3C//DTD SVG 1.1//EN" "http://www.w3.org/Graphics/SVG/1.1/DTD/svg11.dtd">
<svg xmlns="http://www.w3.org/2000/svg" xmlns:xlink="http://www.w3.org/1999/xlink" version="1.1" id="Capa_1" x="0px" y="0px" width="512px" height="512px" viewBox="0 0 55.018 55.018" style="enable-background:new 0 0 55.018 55.018;" xml:space="preserve">
<g>
	<path d="M53.357,8.838C52.438,6,51.179,3.973,48.492,3.973H6.649c-2.687,0-4.069,2.201-4.865,4.865c0,0-1.784,7.947-1.784,16.056   c0,8.109,1.784,12.164,1.784,12.164c0.831,2.72,2.178,4.865,4.865,4.865h17.02v4.854H12.86c-1.257,0-2.276,0.955-2.276,2.133   c0,1.179,1.019,2.134,2.276,2.134h29.298c1.259,0,2.276-0.955,2.276-2.134c0-1.178-1.018-2.133-2.276-2.133h-10.81v-4.854H48.49   c2.688,0,4.016-2.117,4.867-4.865c0,0,1.739-4.704,1.657-12.164C54.971,16.542,53.357,8.838,53.357,8.838z M47.422,32.762   c0,1.257-1.018,2.275-2.275,2.275H9.873c-1.257,0-2.276-1.02-2.276-2.275V13.133c0-1.257,1.019-2.276,2.276-2.276h35.274   c1.258,0,2.275,1.019,2.275,2.276V32.762z" fill="#FFFFFF"/>
</g>
<g>
</g>
<g>
</g>
<g>
</g>
<g>
</g>
<g>
</g>
<g>
</g>
<g>
</g>
<g>
</g>
<g>
</g>
<g>
</g>
<g>
</g>
<g>
</g>
<g>
</g>
<g>
</g>
<g>
</g>
</svg>
