<?xml version="1.0" encoding="iso-8859-1"?>
<!-- Generator: Adobe Illustrator 19.0.0, SVG Export Plug-In . SVG Version: 6.00 Build 0)  -->
<svg xmlns="http://www.w3.org/2000/svg" xmlns:xlink="http://www.w3.org/1999/xlink" version="1.1" id="Layer_1" x="0px" y="0px" viewBox="0 0 512 512" style="enable-background:new 0 0 512 512;" xml:space="preserve" width="512px" height="512px">
<g>
	<g>
		<g>
			<path d="M420.998,189.399H91.002c-6.897,0-12.488,5.591-12.488,12.488v108.228c0,6.897,5.591,12.488,12.488,12.488h329.995     c6.897,0,12.488-5.591,12.488-12.488V201.887C433.485,194.99,427.895,189.399,420.998,189.399z M261.481,268.488h-93.315     c-6.896,0-12.488-5.591-12.488-12.488s5.592-12.488,12.488-12.488h93.315c6.896,0,12.488,5.591,12.488,12.488     S268.377,268.488,261.481,268.488z M334.626,279.977c-13.242,0-23.977-10.734-23.977-23.977s10.734-23.977,23.977-23.977     s23.977,10.734,23.977,23.977S347.868,279.977,334.626,279.977z" fill="#FFFFFF"/>
			<path d="M414.754,0H97.246C86.901,0,78.515,8.387,78.515,18.732v133.204c0,6.897,5.591,12.488,12.488,12.488h329.995     c6.897,0,12.488-5.592,12.488-12.488V18.732C433.485,8.387,425.099,0,414.754,0z M261.481,97.822h-93.315     c-6.896,0-12.488-5.591-12.488-12.488s5.592-12.488,12.488-12.488h93.315c6.896,0,12.488,5.591,12.488,12.488     S268.377,97.822,261.481,97.822z M334.626,109.31c-13.242,0-23.977-10.734-23.977-23.977s10.734-23.977,23.977-23.977     s23.977,10.734,23.977,23.977C358.602,98.575,347.868,109.31,334.626,109.31z" fill="#FFFFFF"/>
			<path d="M420.998,347.577H91.002c-6.897,0-12.488,5.592-12.488,12.488v133.204c0,10.345,8.387,18.732,18.732,18.732h317.507     c10.345,0,18.732-8.387,18.732-18.732V360.065C433.485,353.168,427.895,347.577,420.998,347.577z M261.481,439.155h-93.315     c-6.896,0-12.488-5.591-12.488-12.488s5.592-12.488,12.488-12.488h93.315c6.896,0,12.488,5.591,12.488,12.488     S268.377,439.155,261.481,439.155z M334.626,450.644c-13.242,0-23.977-10.735-23.977-23.977s10.734-23.977,23.977-23.977     s23.977,10.734,23.977,23.977S347.868,450.644,334.626,450.644z" fill="#FFFFFF"/>
		</g>
	</g>
</g>
<g>
</g>
<g>
</g>
<g>
</g>
<g>
</g>
<g>
</g>
<g>
</g>
<g>
</g>
<g>
</g>
<g>
</g>
<g>
</g>
<g>
</g>
<g>
</g>
<g>
</g>
<g>
</g>
<g>
</g>
</svg>
