<?xml version="1.0" encoding="utf-8"?>
<!-- Generator: Adobe Illustrator 18.0.0, SVG Export Plug-In . SVG Version: 6.00 Build 0)  -->
<!DOCTYPE svg PUBLIC "-//W3C//DTD SVG 1.1//EN" "http://www.w3.org/Graphics/SVG/1.1/DTD/svg11.dtd">
<svg version="1.1" id="Layer_1" xmlns="http://www.w3.org/2000/svg" xmlns:xlink="http://www.w3.org/1999/xlink" x="0px" y="0px"
	 viewBox="0 0 1000 1000" enable-background="new 0 0 1000 1000" xml:space="preserve">
<path fill="#EFF2FA" d="M827.6,1000H172.4c-19,0-34.5-15.4-34.5-34.5v-931c0-19,15.4-34.5,34.5-34.5h655.2c19,0,34.5,15.4,34.5,34.5
	v931C862.1,984.6,846.6,1000,827.6,1000z"/>
<path fill="#BAC7CC" d="M431,379.3H224.1c-9.5,0-17.2-7.7-17.2-17.2V86.2c0-9.5,7.7-17.2,17.2-17.2H431c9.5,0,17.2,7.7,17.2,17.2
	v275.9C448.3,371.6,440.6,379.3,431,379.3z"/>
<g>
	<polygon fill="#2166AB" points="369.8,311.9 369.8,274.7 285.4,274.7 285.4,311.9 327.6,354.4 	"/>
	<path fill="#2166AB" d="M434,318.6l-57.4-12.9c-0.9-0.2-1.7-0.5-2.4-0.9l-46.5,25.9l-44.7-27.1c-1.2,1-2.6,1.8-4.2,2.2l-57.4,12.9
		c-8.4,1.9-14.3,9-14.3,17.2v26.3c0,9.5,7.7,17.2,17.2,17.2H431c9.5,0,17.2-7.7,17.2-17.2v-26.3C448.3,327.6,442.3,320.5,434,318.6z
		"/>
	<g>
		<path fill="#2166AB" d="M444.3,324.8l-30.1,25.8c-4.9,4.2-7.7,10.2-7.7,16.5v12.3H431c9.5,0,17.2-7.7,17.2-17.2v-26.3
			C448.3,331.7,446.8,327.9,444.3,324.8z"/>
		<path fill="#2166AB" d="M241,350.6l-30.1-25.8c-2.5,3-4,6.9-4,11v26.3c0,9.5,7.7,17.2,17.2,17.2h24.5v-12.3
			C248.7,360.8,245.9,354.8,241,350.6z"/>
	</g>
	<polygon fill="#2166AB" points="339.2,379.3 316,379.3 318.9,330.5 336.3,330.5 	"/>
	<g>
		<path fill="#2166AB" d="M285.2,294.2l42.4,36.4c0,0-11.9,5.7-26.5,17.2c-3,2.4-7.6,1.4-9.2-2l-19.9-41.8l6.3-9
			C279.8,292.8,283.1,292.4,285.2,294.2z"/>
		<path fill="#2166AB" d="M370,294.2l-42.4,36.4c0,0,11.9,5.7,26.5,17.2c3,2.4,7.6,1.4,9.2-2l19.9-41.8l-6.3-9
			C375.4,292.8,372.1,292.4,370,294.2z"/>
	</g>
	<path fill="#2166AB" d="M344.8,120.7h-34.5c-28.6,0-51.7,23.2-51.7,51.7v37.4c0,9.1,3.6,17.9,10.1,24.4l7.1,7.1h103.4l7.1-7.1
		c6.5-6.5,10.1-15.2,10.1-24.4v-37.4C396.6,143.8,373.4,120.7,344.8,120.7z"/>
	<path fill="#2166AB" d="M274,209.5l2.2,49.7c0.3,7.8,4.1,14.9,10.1,19.6l17.5,13.4c4.4,3.4,9.7,5.2,15.2,5.2h16.9
		c5.5,0,10.8-1.8,15.2-5.2l17.5-13.4c6.1-4.7,9.8-11.8,10.1-19.6l2.2-49.7c0.8-18.1-13.4-33.3-31.1-33.3h-44.9
		C287.4,176.2,273.2,191.4,274,209.5z"/>
</g>
<path fill="#17A58A" d="M775.9,103.4H534.5c-9.5,0-17.2-7.7-17.2-17.2l0,0c0-9.5,7.7-17.2,17.2-17.2h241.4c9.5,0,17.2,7.7,17.2,17.2
	l0,0C793.1,95.7,785.4,103.4,775.9,103.4z"/>
<g>
	<path fill="#D7DEED" d="M775.9,241.4H534.5c-9.5,0-17.2-7.7-17.2-17.2l0,0c0-9.5,7.7-17.2,17.2-17.2h241.4
		c9.5,0,17.2,7.7,17.2,17.2l0,0C793.1,233.7,785.4,241.4,775.9,241.4z"/>
	<path fill="#D7DEED" d="M775.9,379.3H534.5c-9.5,0-17.2-7.7-17.2-17.2l0,0c0-9.5,7.7-17.2,17.2-17.2h241.4
		c9.5,0,17.2,7.7,17.2,17.2l0,0C793.1,371.6,785.4,379.3,775.9,379.3z"/>
	<path fill="#D7DEED" d="M500,482.8H362.1c-9.5,0-17.2-7.7-17.2-17.2l0,0c0-9.5,7.7-17.2,17.2-17.2H500c9.5,0,17.2,7.7,17.2,17.2
		l0,0C517.2,475,509.5,482.8,500,482.8z"/>
	<path fill="#D7DEED" d="M431,551.7H224.1c-9.5,0-17.2-7.7-17.2-17.2l0,0c0-9.5,7.7-17.2,17.2-17.2H431c9.5,0,17.2,7.7,17.2,17.2
		l0,0C448.3,544,440.6,551.7,431,551.7z"/>
	<path fill="#D7DEED" d="M775.9,551.7H500c-9.5,0-17.2-7.7-17.2-17.2l0,0c0-9.5,7.7-17.2,17.2-17.2h275.9c9.5,0,17.2,7.7,17.2,17.2
		l0,0C793.1,544,785.4,551.7,775.9,551.7z"/>
	<path fill="#D7DEED" d="M603.4,482.8H569c-9.5,0-17.2-7.7-17.2-17.2l0,0c0-9.5,7.7-17.2,17.2-17.2h34.5c9.5,0,17.2,7.7,17.2,17.2
		l0,0C620.7,475,613,482.8,603.4,482.8z"/>
</g>
<path fill="#C7CFE2" d="M293.1,482.8h-69c-9.5,0-17.2-7.7-17.2-17.2l0,0c0-9.5,7.7-17.2,17.2-17.2h69c9.5,0,17.2,7.7,17.2,17.2l0,0
	C310.3,475,302.6,482.8,293.1,482.8z"/>
<g>
	<path fill="#D7DEED" d="M500,655.2H362.1c-9.5,0-17.2-7.7-17.2-17.2l0,0c0-9.5,7.7-17.2,17.2-17.2H500c9.5,0,17.2,7.7,17.2,17.2
		l0,0C517.2,647.5,509.5,655.2,500,655.2z"/>
	<path fill="#D7DEED" d="M431,724.1H224.1c-9.5,0-17.2-7.7-17.2-17.2l0,0c0-9.5,7.7-17.2,17.2-17.2H431c9.5,0,17.2,7.7,17.2,17.2
		l0,0C448.3,716.4,440.6,724.1,431,724.1z"/>
	<path fill="#D7DEED" d="M775.9,724.1H500c-9.5,0-17.2-7.7-17.2-17.2l0,0c0-9.5,7.7-17.2,17.2-17.2h275.9c9.5,0,17.2,7.7,17.2,17.2
		l0,0C793.1,716.4,785.4,724.1,775.9,724.1z"/>
	<path fill="#D7DEED" d="M603.4,655.2H569c-9.5,0-17.2-7.7-17.2-17.2l0,0c0-9.5,7.7-17.2,17.2-17.2h34.5c9.5,0,17.2,7.7,17.2,17.2
		l0,0C620.7,647.5,613,655.2,603.4,655.2z"/>
</g>
<path fill="#C7CFE2" d="M293.1,655.2h-69c-9.5,0-17.2-7.7-17.2-17.2l0,0c0-9.5,7.7-17.2,17.2-17.2h69c9.5,0,17.2,7.7,17.2,17.2l0,0
	C310.3,647.5,302.6,655.2,293.1,655.2z"/>
<g>
	<path fill="#D7DEED" d="M500,827.6H362.1c-9.5,0-17.2-7.7-17.2-17.2l0,0c0-9.5,7.7-17.2,17.2-17.2H500c9.5,0,17.2,7.7,17.2,17.2
		l0,0C517.2,819.9,509.5,827.6,500,827.6z"/>
	<path fill="#D7DEED" d="M431,896.6H224.1c-9.5,0-17.2-7.7-17.2-17.2l0,0c0-9.5,7.7-17.2,17.2-17.2H431c9.5,0,17.2,7.7,17.2,17.2
		l0,0C448.3,888.8,440.6,896.6,431,896.6z"/>
	<path fill="#D7DEED" d="M775.9,896.6H500c-9.5,0-17.2-7.7-17.2-17.2l0,0c0-9.5,7.7-17.2,17.2-17.2h275.9c9.5,0,17.2,7.7,17.2,17.2
		l0,0C793.1,888.8,785.4,896.6,775.9,896.6z"/>
	<path fill="#D7DEED" d="M603.4,827.6H569c-9.5,0-17.2-7.7-17.2-17.2l0,0c0-9.5,7.7-17.2,17.2-17.2h34.5c9.5,0,17.2,7.7,17.2,17.2
		l0,0C620.7,819.9,613,827.6,603.4,827.6z"/>
</g>
<path fill="#C7CFE2" d="M293.1,827.6h-69c-9.5,0-17.2-7.7-17.2-17.2l0,0c0-9.5,7.7-17.2,17.2-17.2h69c9.5,0,17.2,7.7,17.2,17.2l0,0
	C310.3,819.9,302.6,827.6,293.1,827.6z"/>
<path fill="#D7DEED" d="M775.9,310.3H534.5c-9.5,0-17.2-7.7-17.2-17.2l0,0c0-9.5,7.7-17.2,17.2-17.2h241.4c9.5,0,17.2,7.7,17.2,17.2
	l0,0C793.1,302.6,785.4,310.3,775.9,310.3z"/>
<path fill="#17A58A" d="M775.9,172.4H534.5c-9.5,0-17.2-7.7-17.2-17.2l0,0c0-9.5,7.7-17.2,17.2-17.2h241.4c9.5,0,17.2,7.7,17.2,17.2
	l0,0C793.1,164.7,785.4,172.4,775.9,172.4z"/>
</svg>
