<?xml version="1.0" encoding="utf-8"?>
<!-- Generator: Adobe Illustrator 18.0.0, SVG Export Plug-In . SVG Version: 6.00 Build 0)  -->
<!DOCTYPE svg PUBLIC "-//W3C//DTD SVG 1.1//EN" "http://www.w3.org/Graphics/SVG/1.1/DTD/svg11.dtd">
<svg version="1.1" id="Capa_1" xmlns="http://www.w3.org/2000/svg" xmlns:xlink="http://www.w3.org/1999/xlink" x="0px" y="0px"
	 viewBox="0 0 1000 1000" enable-background="new 0 0 1000 1000" xml:space="preserve">
<path fill="#E7ECED" d="M351.2,784L202,865.4c-8.8,4.8-16.6,10.6-23.9,17C265,955.8,377.3,1000,500,1000
	c121.8,0,233.3-43.6,320.1-115.9c-8-6.8-16.7-12.8-26.3-17.6L634,786.6c-20.6-10.3-33.7-31.4-33.7-54.5v-62.7
	c4.5-5.1,9.6-11.7,15.1-19.4c21.8-30.8,38.2-64.6,49.7-100.1c20.5-6.3,35.6-25.2,35.6-47.7v-66.9c0-14.7-6.5-27.9-16.7-37.1v-96.7
	c0,0,19.9-150.5-184-150.5s-184,150.5-184,150.5v96.7c-10.2,9.2-16.7,22.4-16.7,37.1v66.9c0,17.6,9.3,33.1,23.1,42.1
	C339.2,617,383,669.4,383,669.4v61.1C382.9,752.8,370.8,773.3,351.2,784z"/>
<g>
	<path fill="#2166AB" d="M508.5,0.1C232.5-4.6,4.8,215.4,0.1,491.5C-2.6,648,67.2,788.7,178.3,882.3c7.3-6.3,15.1-12.2,23.7-16.9
		L351.2,784c19.6-10.7,31.8-31.2,31.8-53.5v-61.1c0,0-43.8-52.4-60.5-125.2c-13.8-9-23.1-24.5-23.1-42.1v-66.9
		c0-14.7,6.5-27.9,16.7-37.1v-96.7c0,0-19.9-150.5,184-150.5s184,150.5,184,150.5v96.7c10.2,9.2,16.7,22.4,16.7,37.1v66.9
		c0,22.5-15.1,41.4-35.6,47.7c-11.4,35.5-27.9,69.3-49.7,100.1c-5.5,7.8-10.6,14.3-15.1,19.4v62.7c0,23.1,13,44.2,33.7,54.5
		l159.8,79.9c9.6,4.8,18.2,10.8,26.2,17.6c107.7-89.8,177.3-224.2,179.9-375.5C1004.6,232.5,784.7,4.8,508.5,0.1z"/>
</g>
</svg>
