<?xml version="1.0" standalone="no"?>
<!DOCTYPE svg PUBLIC "-//W3C//DTD SVG 20010904//EN"
 "http://www.w3.org/TR/2001/REC-SVG-20010904/DTD/svg10.dtd">
<svg version="1.0" xmlns="http://www.w3.org/2000/svg"
 width="260.000000pt" height="260.000000pt" viewBox="0 0 260.000000 260.000000"
 preserveAspectRatio="xMidYMid meet">
<metadata>
Created by potrace 1.11, written by Peter Selinger 2001-2013
</metadata>
<g transform="translate(0.000000,260.000000) scale(0.100000,-0.100000)"
fill="#000000" stroke="none">
<path d="M530 2045 l0 -155 -105 0 -105 0 0 -105 0 -105 105 0 105 0 0 105 0
105 160 0 160 0 0 155 0 155 -160 0 -160 0 0 -155z"/>
<path d="M2367 2058 c12 -23 18 -56 18 -108 0 -66 -4 -84 -37 -153 -21 -43
-52 -98 -69 -123 l-32 -44 -244 0 -243 0 0 -203 0 -203 -82 -46 c-83 -44 -243
-119 -285 -132 l-23 -7 0 295 0 296 -270 0 -270 0 0 60 0 60 -75 0 -75 0 0
-130 0 -130 270 0 270 0 0 -249 c0 -229 -1 -250 -17 -255 -65 -20 -135 -29
-248 -35 l-130 -7 55 -18 c89 -29 287 -33 435 -8 236 40 500 151 695 289 331
237 550 616 458 793 -22 43 -77 90 -105 90 -11 0 -10 -7 4 -32z m-257 -572 c0
-6 -186 -156 -193 -156 -4 0 -7 36 -7 80 l0 80 100 0 c55 0 100 -2 100 -4z"/>
<path d="M1030 1975 l0 -65 599 0 599 0 20 33 c11 17 23 47 27 65 l7 32 -626
0 -626 0 0 -65z"/>
<path d="M1833 984 l-73 -34 0 -215 0 -215 -195 0 -195 0 0 159 0 158 -52 -4
c-29 -2 -63 -6 -75 -9 l-23 -4 0 -220 0 -220 345 0 345 0 0 320 c0 176 -1 320
-2 319 -2 0 -36 -16 -75 -35z"/>
</g>
</svg>
