<?xml version="1.0" encoding="utf-8"?>
<!-- Generator: Adobe Illustrator 18.0.0, SVG Export Plug-In . SVG Version: 6.00 Build 0)  -->
<!DOCTYPE svg PUBLIC "-//W3C//DTD SVG 1.1//EN" "http://www.w3.org/Graphics/SVG/1.1/DTD/svg11.dtd">
<svg version="1.1" id="Layer_1" xmlns="http://www.w3.org/2000/svg" xmlns:xlink="http://www.w3.org/1999/xlink" x="0px" y="0px"
	 viewBox="0 0 1000 1000" enable-background="new 0 0 1000 1000" xml:space="preserve">
<ellipse fill="#1864B7" cx="2874.4" cy="1204.7" rx="498.1" ry="499.6"/>
<path display="none" fill="none" stroke="#D3D3D3" stroke-width="80" stroke-linejoin="round" stroke-miterlimit="10" d="
	M319.7,280.3c0-99.2,81.1-180.3,180.3-180.3h0c99.2,0,180.3,81.1,180.3,180.3l-0.3,62.2"/>
<g>
	<path fill="#FFFFFF" d="M1782,304.7h-4.3v-57.3c0-63.6-51.7-115.3-115.3-115.3c-63.6,0-115.3,51.7-115.3,115.3
		c0,8,6.6,14.6,14.6,14.6s14.6-6.6,14.6-14.6c0-47.6,38.8-86.3,86.3-86.3s86.3,38.8,86.3,86.3v57.3h-206.2
		c-20.8,0-37.8,17-37.8,37.8V500c0,20.8,17,37.8,37.8,37.8h239.2c20.8,0,37.8-17,37.8-37.8V342.5
		C1819.7,321.7,1802.9,304.7,1782,304.7z M1790.7,499.9c0,4.8-3.8,8.7-8.7,8.7h-239.3c-4.8,0-8.7-3.8-8.7-8.7V342.4
		c0-4.8,3.8-8.7,8.7-8.7h239.2c4.8,0,8.7,3.8,8.7,8.7v157.5H1790.7z"/>
	<path fill="#FFFFFF" d="M1666.5,380.2c-10.6-2.1-21.6,3.8-26.1,13.9c-4.6,10.4-1.6,22.1,7.8,29c1.9,1.4,2.2,2.7,2.2,4.8
		c0,10.4,0,20.7,0,31.1l0,0c0,8.5,9,15.1,18.1,10.4c3.8-1.9,6.1-6.1,5.8-10.4l0,0c0-10.4,0-20.7,0-31.1c0-2.2,0.5-3.7,2.6-5.1
		c6.6-4.8,9.8-11.4,9.8-19.4C1686.4,391.9,1678.2,382.4,1666.5,380.2z"/>
</g>
<path fill="#262626" d="M1455.2,367.8h-80.6c-6.4-22.3-26.8-38.6-51.1-38.6c-29.3,0-53.2,23.9-53.2,53.2s23.9,53.2,53.2,53.2
	c24.2,0,44.7-16.3,51.1-38.6h80.7c8,0,14.6-6.6,14.6-14.6C1469.8,374.4,1463.2,367.8,1455.2,367.8z M1323.6,406.4
	c-13.3,0-24-10.7-24-24s10.7-24,24-24c13.3,0,24,10.7,24,24C1347.6,395.7,1336.9,406.4,1323.6,406.4z"/>
<path fill="#262626" d="M1455.2,282.4H1367c-15.9,0-28.8-13-28.8-28.8v-47.4c22.3-6.4,38.6-26.8,38.6-51.1
	c0-29.3-23.9-53.2-53.2-53.2c-29.3,0-53.2,23.9-53.2,53.2c0,24.2,16.3,44.7,38.6,51.1v47.4c0,31.9,26,57.8,57.8,57.8h88.4
	c8,0,14.6-6.6,14.6-14.6C1469.8,288.8,1463.2,282.4,1455.2,282.4z M1299.4,155.1c0-13.3,10.7-24,24-24c13.3,0,24,10.7,24,24
	c0,13.3-10.7,24-24,24C1310.1,179.1,1299.4,168.4,1299.4,155.1z"/>
<path fill="#262626" d="M1455.2,453.2H1367c-31.9,0-57.8,26-57.8,57.8v47.4c-22.3,6.4-38.6,26.8-38.6,51.1
	c0,29.3,23.9,53.2,53.2,53.2s53.2-23.9,53.2-53.2c0-24.2-16.3-44.7-38.6-51.1V511c0-15.9,13-28.8,28.8-28.8h88.4
	c8,0,14.6-6.6,14.6-14.6C1469.8,459.8,1463.2,453.2,1455.2,453.2z M1347.6,609.5c0,13.3-10.7,24-24,24c-13.3,0-24-10.7-24-24
	c0-13.3,10.7-24,24-24C1336.9,585.5,1347.6,596.2,1347.6,609.5z"/>
<path fill="#262626" d="M2001.2,329.2c-24.2,0-44.7,16.3-51.1,38.6h-80.7c-8,0-14.6,6.6-14.6,14.6s6.6,14.6,14.6,14.6h80.7
	c6.4,22.3,26.8,38.6,51.1,38.6c29.3,0,53.2-23.9,53.2-53.2C2054.4,353.1,2030.5,329.2,2001.2,329.2z M2001.2,406.4
	c-13.3,0-24-10.7-24-24s10.7-24,24-24c13.3,0,24,10.7,24,24C2025.4,395.7,2014.5,406.4,2001.2,406.4z"/>
<path fill="#262626" d="M2015.7,558.4V511c0-31.9-26-57.8-57.8-57.8h-88.4c-8,0-14.6,6.6-14.6,14.6s6.6,14.6,14.6,14.6h88.4
	c15.9,0,28.8,13,28.8,28.8v47.4c-22.3,6.4-38.6,26.8-38.6,51.1c0,29.3,23.9,53.2,53.2,53.2s53.2-23.9,53.2-53.2
	C2054.4,585.4,2038,564.8,2015.7,558.4z M2001.2,633.7c-13.3,0-24-10.7-24-24c0-13.3,10.7-24,24-24c13.3,0,24,10.7,24,24
	C2025.4,622.8,2014.5,633.7,2001.2,633.7z"/>
<path fill="#262626" d="M1869.5,311.4h88.4c31.9,0,57.8-26,57.8-57.8v-47.4c22.3-6.4,38.6-26.8,38.6-51.1
	c0-29.3-23.9-53.2-53.2-53.2s-53.2,23.9-53.2,53.2c0,24.2,16.3,44.7,38.6,51.1v47.4c0,15.9-13,28.8-28.8,28.8h-88.4
	c-8,0-14.6,6.6-14.6,14.6C1854.9,304.9,1861.5,311.4,1869.5,311.4z M1977.1,155.1c0-13.3,10.7-24,24-24c13.3,0,24,10.7,24,24
	c0,13.3-10.7,24-24,24C1987.9,179.1,1977.1,168.4,1977.1,155.1z"/>
<g>
	<path fill="#C3D6DB" d="M849.3,724.3H171.2c-16.3,0-29.4-13.2-29.4-29.4V304.4c0-16.3,13.2-29.4,29.4-29.4h678.1
		c16.3,0,29.4,13.2,29.4,29.4v390.5C878.7,711.1,865.6,724.3,849.3,724.3z"/>
</g>
<path fill="#FFFFFF" d="M509.9,571.7l356.7-287.3c-6.5-5.9-15.1-9.5-24.5-9.5H177.8c-9.4,0-18,3.6-24.5,9.5L509.9,571.7z"/>
<rect x="416.1" y="275.4" fill="#FFA440" width="188.9" height="448.9"/>
<path fill="none" stroke="#383838" stroke-width="30" stroke-linecap="round" stroke-miterlimit="10" d="M1624,980.4V914
	c0-24.4-20-44.4-44.4-44.4h-56c-24.4,0-44.4,20-44.4,44.4v66.4"/>
<path fill="#FFA440" d="M1651.4,1091h-199.3c-11.7,0-21.1-9.5-21.1-21.1v-111c0-11.7,9.5-21.1,21.1-21.1h199.3
	c11.7,0,21.1,9.5,21.1,21.1v111C1672.5,1081.5,1663.1,1091,1651.4,1091z"/>
<path fill="#FFA440" d="M1400.8-97.3c0,8.4-12,15.5-13.9,23.4c-1.8,8.2,6.1,19.8,2.7,27.3c-3.6,7.5-17.5,8.4-22.5,14.8
	s-2.7,20.5-9.1,25.7c-6.4,5.2-19.1-0.2-26.4,3.4c-7.3,3.6-11.1,17.3-19.1,19.1c-7.7,1.8-17-8.6-25.2-8.6c-8.2,0-17.5,10.5-25.2,8.6
	c-8-1.8-11.8-15.5-19.1-19.1c-7.3-3.6-20.2,1.8-26.4-3.4c-6.4-5.2-4.1-19.3-9.1-25.7s-18.9-7.3-22.5-14.8
	c-3.4-7.3,4.5-19.1,2.7-27.3c-2.3-8-14.3-15-14.3-23.4s12-15.5,13.9-23.4c1.8-8.2-6.1-19.8-2.7-27.3c3.6-7.5,17.5-8.4,22.5-14.8
	c5-6.4,2.7-20.5,9.1-25.7c6.4-5.2,19.1,0.2,26.4-3.4c7.3-3.6,11.1-17.3,19.1-19.1c7.7-1.8,17,8.6,25.2,8.6c8.2,0,17.5-10.5,25.2-8.6
	c8,1.8,11.8,15.5,19.1,19.1c7.3,3.6,20.2-1.8,26.4,3.4c6.4,5.2,4.1,19.3,9.1,25.7c5,6.4,18.9,7.3,22.5,14.8
	c3.4,7.3-4.5,19.1-2.7,27.3C1388.8-112.8,1400.8-105.7,1400.8-97.3z"/>
<g>
	<path fill="#303030" d="M553.6,468c2.7,27.3-20.1,50.1-47.4,47.4c-20.2-2-36.6-18.4-38.6-38.6c-2.7-27.3,20.1-50.1,47.4-47.4
		C535.2,431.4,551.6,447.7,553.6,468z"/>
	<path fill="#303030" d="M514.6,570.6h-8c-9.4,0-17-7.6-17-17v-71.1c0-9.4,7.6-17,17-17h8c9.4,0,17,7.6,17,17v71.1
		C531.6,562.9,524,570.6,514.6,570.6z"/>
</g>
<path fill="#2B414D" d="M1190.5,336.6l-87.7,39.8l70.9,156.3l38.2-32.3l49.3-7.3L1190.5,336.6z"/>
<path fill="#475F6C" d="M1125.5,338.2l87.7,39.8l-70.9,156.6l-38.2-32.5l-49.5-7.3C1054.6,494.8,1125.5,338.2,1125.5,338.2z"/>
</svg>
