<?xml version="1.0" encoding="utf-8"?>
<!-- Generator: Adobe Illustrator 18.0.0, SVG Export Plug-In . SVG Version: 6.00 Build 0)  -->
<!DOCTYPE svg PUBLIC "-//W3C//DTD SVG 1.1//EN" "http://www.w3.org/Graphics/SVG/1.1/DTD/svg11.dtd">
<svg version="1.1" id="Layer_1" xmlns="http://www.w3.org/2000/svg" xmlns:xlink="http://www.w3.org/1999/xlink" x="0px" y="0px"
	 viewBox="0 0 200 200" enable-background="new 0 0 200 200" xml:space="preserve">
<path fill="none" stroke="#000000" stroke-width="6" stroke-miterlimit="10" d="M15.5,97.9"/>
<g>
	<path fill="#FFFFFF" d="M48.7,71c-7.7,0-14.1-6.3-14.1-14.1c0-7.7,6.3-14.1,14.1-14.1S62.7,49.2,62.7,57C62.7,64.7,56.4,71,48.7,71
		z M48.7,48.9c-4.4,0-8.1,3.6-8.1,8.1s3.6,8.1,8.1,8.1s8.1-3.6,8.1-8.1S53.1,48.9,48.7,48.9z"/>
	<path fill="#FFFFFF" d="M105,56.7c-7.7,0-14.1-6.3-14.1-14.1s6.3-14.1,14.1-14.1c7.7,0,14.1,6.3,14.1,14.1S112.8,56.7,105,56.7z
		 M105,34.6c-4.4,0-8.1,3.6-8.1,8.1s3.6,8.1,8.1,8.1c4.4,0,8.1-3.6,8.1-8.1S109.5,34.6,105,34.6z"/>
	<path fill="#FFFFFF" d="M33.2,145.1c-7.7,0-14.1-6.3-14.1-14.1c0-7.8,6.3-14.1,14.1-14.1s14.1,6.3,14.1,14.1
		C47.2,138.8,40.9,145.1,33.2,145.1z M33.2,123c-4.4,0-8.1,3.6-8.1,8.1c0,4.4,3.6,8.1,8.1,8.1s8.1-3.6,8.1-8.1
		C41.2,126.6,37.6,123,33.2,123z"/>
	<path fill="#FFFFFF" d="M168.1,78.8c-7.8,0-14.1-6.3-14.1-14.1s6.3-14.1,14.1-14.1c7.7,0,14.1,6.3,14.1,14.1S175.8,78.8,168.1,78.8
		z M168.1,56.7c-4.4,0-8.1,3.6-8.1,8.1s3.6,8.1,8.1,8.1c4.4,0,8.1-3.6,8.1-8.1S172.5,56.7,168.1,56.7z"/>
	<path fill="#FFFFFF" d="M148.2,182.7c-7.8,0-14.1-6.3-14.1-14.1c0-7.7,6.3-14.1,14.1-14.1c7.7,0,14.1,6.3,14.1,14.1
		C162.2,176.4,155.9,182.7,148.2,182.7z M148.2,160.6c-4.4,0-8.1,3.6-8.1,8.1c0,4.4,3.6,8.1,8.1,8.1c4.4,0,8.1-3.6,8.1-8.1
		C156.2,164.2,152.6,160.6,148.2,160.6z"/>
	<path fill="#FFFFFF" d="M184.6,131.8c-7.7,0-14.1-6.3-14.1-14.1c0-7.7,6.3-14.1,14.1-14.1c7.8,0,14.1,6.3,14.1,14.1
		C198.7,125.5,192.4,131.8,184.6,131.8z M184.6,109.7c-4.4,0-8.1,3.6-8.1,8.1c0,4.4,3.6,8.1,8.1,8.1c4.4,0,8.1-3.6,8.1-8.1
		C192.7,113.3,189.1,109.7,184.6,109.7z"/>
	<path fill="#FFFFFF" d="M15.5,111.9c-7.7,0-14.1-6.3-14.1-14.1s6.3-14.1,14.1-14.1s14.1,6.3,14.1,14.1S23.3,111.9,15.5,111.9z
		 M15.5,89.8c-4.4,0-8.1,3.6-8.1,8.1s3.6,8.1,8.1,8.1s8.1-3.6,8.1-8.1S19.9,89.8,15.5,89.8z"/>
	<path fill="#FFFFFF" d="M99.5,150.6c-7.7,0-14.1-6.3-14.1-14.1c0-7.8,6.3-14.1,14.1-14.1c7.8,0,14.1,6.3,14.1,14.1
		C113.6,144.3,107.3,150.6,99.5,150.6z M99.5,128.5c-4.4,0-8.1,3.6-8.1,8.1c0,4.4,3.6,8.1,8.1,8.1c4.4,0,8.1-3.6,8.1-8.1
		C107.6,132.1,104,128.5,99.5,128.5z"/>
</g>
<g>
	<path fill="#FFFFFF" d="M31.6,120.1L24,105c-1.7,2.1-4.2,3.5-7,3.9l7.7,15.2C26.3,122,28.8,120.5,31.6,120.1z"/>
	<path fill="#FFFFFF" d="M25.2,92.6l19.1-25.5c-2.6-1.1-4.6-3.2-5.7-5.7l-19.5,26C21.7,88.3,23.9,90.2,25.2,92.6z"/>
	<path fill="#FFFFFF" d="M116.1,42.1c0,0.2,0,0.3,0,0.5c0,2.7-1,5.2-2.6,7.1L157,65.1c0-0.1,0-0.2,0-0.4c0-2.7,1-5.2,2.7-7.2
		L116.1,42.1z"/>
	<path fill="#FFFFFF" d="M57,49.7c1.7,1.9,2.7,4.5,2.7,7.3c0,0.1,0,0.2,0,0.3l34.7-8L68.6,81.1L57.4,63.7c-1.7,2.1-4.1,3.7-6.9,4.1
		l12.7,19.8l-26.7,32.9c2.6,0.9,4.9,2.7,6.2,5l25.1-30.8l22.7,35.3c1.6-2.2,4-3.8,6.7-4.3L73.2,88.2l28.5-35.1
		c-4.4-1.4-7.7-5.6-7.7-10.5c0-0.5,0-0.9,0.1-1.4L57,49.7z"/>
	<path fill="#FFFFFF" d="M88.9,139.6c-0.3-1-0.4-2-0.4-3.1c0-1.8,0.4-3.4,1.2-4.9l-45.7-3.3c0.2,0.9,0.3,1.7,0.3,2.7
		c0,1.9-0.5,3.7-1.3,5.3L88.9,139.6z"/>
	<path fill="#FFFFFF" d="M148.2,157.6c0.2,0,0.3,0,0.5,0L132,108.3l31.9-33.4c-2.6-1.1-4.6-3-5.8-5.5l-29,30.4l-16.6-48.9
		c-2,1.8-4.6,3.1-7.4,3.1c0,0,0,0,0,0l17.8,52.5l-19.1,20c2.6,1.1,4.6,3,5.8,5.5l16.2-17l14.7,43.3l-29.9-20.8
		c-0.2,2.9-1.5,5.4-3.5,7.3l30.5,21.2C138.7,161.1,143,157.6,148.2,157.6z"/>
	<path fill="#FFFFFF" d="M168.1,75.8c-0.3,0-0.5,0-0.8,0l10.4,33.5c1.9-1.5,4.3-2.5,7-2.5c0.2,0,0.4,0,0.7,0l-10.4-33.4
		C173,74.9,170.7,75.8,168.1,75.8z"/>
	<path fill="#FFFFFF" d="M175.5,124l-24.4,34c2.7,0.8,5,2.5,6.4,4.8l24.5-34.3C179.3,127.9,177,126.2,175.5,124z"/>
</g>
</svg>
