<?xml version="1.0" encoding="utf-8"?>
<!-- Generator: Adobe Illustrator 18.0.0, SVG Export Plug-In . SVG Version: 6.00 Build 0)  -->
<!DOCTYPE svg PUBLIC "-//W3C//DTD SVG 1.1//EN" "http://www.w3.org/Graphics/SVG/1.1/DTD/svg11.dtd">
<svg version="1.1" id="Capa_1" xmlns="http://www.w3.org/2000/svg" xmlns:xlink="http://www.w3.org/1999/xlink" x="0px" y="0px"
	 viewBox="0 0 1000 1000" enable-background="new 0 0 1000 1000" xml:space="preserve">
<circle fill="#62707C" cx="500" cy="500" r="500"/>
<path fill="#E7ECED" d="M807.9,450.3c-3.6-47.2-43-84.4-91.1-84.4H500v0.1H283.2c-50.5,0-91.4,40.9-91.4,91.4v286.8
	c0,50.5,40.9,91.4,91.4,91.4H500h216.8c17.4,0,33.6-4.8,47.4-13.2c5.7-3.4,10.9-7.5,15.7-12c0.5-0.5,1.1-1,1.6-1.5
	c1.6-1.6,3-3.2,4.5-4.8c0.5-0.6,1-1.1,1.4-1.7c0.9-1.1,1.8-2.3,2.7-3.5c0.4-0.6,0.9-1.2,1.3-1.8c7.6-10.8,13-23.2,15.4-36.7
	c0.1-0.8,0.3-1.5,0.4-2.3c0.7-4.5,1.1-9.2,1.1-13.9V457.4C808.2,455,808.1,452.6,807.9,450.3z M544,615.5c0,24.2-19.8,44-44,44
	s-44-19.8-44-44v-88.1c0-24.2,19.8-44,44-44s44,19.8,44,44V615.5z"/>
<path fill="#A5B0B5" d="M283.2,365.9h55.3v-95.4c0-76.9,72.4-139.4,161.5-139.4s161.5,62.6,161.5,139.4v95.4h55.3
	c1.1,0,2.2,0.1,3.4,0.2v-95.6c0-109-99.1-198.1-220.2-198.1s-220.2,89.2-220.2,198.1v95.6C281,366.1,282.1,365.9,283.2,365.9z"/>
</svg>
