<?xml version="1.0" encoding="utf-8"?>
<!-- Generator: Adobe Illustrator 18.0.0, SVG Export Plug-In . SVG Version: 6.00 Build 0)  -->
<!DOCTYPE svg PUBLIC "-//W3C//DTD SVG 1.1//EN" "http://www.w3.org/Graphics/SVG/1.1/DTD/svg11.dtd">
<svg version="1.1" id="Capa_1" xmlns="http://www.w3.org/2000/svg" xmlns:xlink="http://www.w3.org/1999/xlink" x="0px" y="0px"
	 viewBox="0 0 1000 1000" enable-background="new 0 0 1000 1000" xml:space="preserve">
<path fill="#E7ECED" d="M-1392,726l-149.2,81.4c-8.8,4.8-16.6,10.6-23.9,17c86.9,73.4,199.2,117.6,321.9,117.6
	c121.8,0,233.3-43.6,320.1-115.9c-8-6.8-16.7-12.8-26.3-17.6l-159.8-79.9c-20.6-10.3-33.7-31.4-33.7-54.5v-62.7
	c4.5-5.1,9.6-11.7,15.1-19.4c21.8-30.8,38.2-64.6,49.7-100.1c20.5-6.3,35.6-25.2,35.6-47.7v-66.9c0-14.7-6.5-27.9-16.7-37.1v-96.7
	c0,0,19.9-150.5-184-150.5c-203.9,0-184,150.5-184,150.5v96.7c-10.2,9.2-16.7,22.4-16.7,37.1v66.9c0,17.6,9.3,33.1,23.1,42.1
	c16.8,72.7,60.6,125.1,60.6,125.1v61.1C-1360.3,694.8-1372.4,715.3-1392,726z"/>
<g>
	<path fill="#2166AB" d="M-1234.7-57.9c-276-4.7-503.7,215.3-508.4,491.4c-2.7,156.5,67.1,297.2,178.2,390.8
		c7.3-6.3,15.1-12.2,23.7-16.9L-1392,726c19.6-10.7,31.8-31.2,31.8-53.5v-61.1c0,0-43.8-52.4-60.5-125.2
		c-13.8-9-23.1-24.5-23.1-42.1v-66.9c0-14.7,6.5-27.9,16.7-37.1v-96.7c0,0-19.9-150.5,184-150.5s184,150.5,184,150.5v96.7
		c10.2,9.2,16.7,22.4,16.7,37.1v66.9c0,22.5-15.1,41.4-35.6,47.7c-11.4,35.5-27.9,69.3-49.7,100.1c-5.5,7.8-10.6,14.3-15.1,19.4V674
		c0,23.1,13,44.2,33.7,54.5l159.8,79.9c9.6,4.8,18.2,10.8,26.2,17.6c107.7-89.8,177.3-224.2,179.9-375.5
		C-738.6,174.5-958.5-53.2-1234.7-57.9z"/>
</g>
<path fill="#2166AB" d="M500,1000L500,1000C223.9,1000,0,776.1,0,500v0C0,223.9,223.9,0,500,0h0c276.1,0,500,223.9,500,500v0
	C1000,776.1,776.1,1000,500,1000z"/>
<g>
	<path fill="#A5C9CE" d="M866.9,726.4V573.6c0-17.6-14.3-31.9-31.9-31.9H165.1c-17.6,0-31.9,14.3-31.9,31.9v152.8
		c0,17.6,14.3,31.9,31.9,31.9l669.9,0C852.6,758.3,866.9,744,866.9,726.4z M791.8,650c0-12.6,10.2-22.7,22.7-22.7
		c12.6,0,22.7,10.2,22.7,22.7c0,12.6-10.2,22.7-22.7,22.7C802,672.7,791.8,662.6,791.8,650z"/>
	<rect x="733.6" y="710.4" opacity="0.4" fill="#59595A" width="14" height="47.9"/>
	<rect x="674.6" y="710.4" opacity="0.4" fill="#59595A" width="14" height="47.9"/>
	<rect x="615.5" y="710.4" opacity="0.4" fill="#59595A" width="14" height="47.9"/>
	<rect x="556.5" y="710.4" opacity="0.4" fill="#59595A" width="14" height="47.9"/>
	<rect x="497.5" y="710.4" opacity="0.4" fill="#59595A" width="14" height="47.9"/>
	<rect x="438.5" y="710.4" opacity="0.4" fill="#59595A" width="14" height="47.9"/>
	<rect x="379.4" y="710.4" opacity="0.4" fill="#59595A" width="14" height="47.9"/>
	<rect x="320.4" y="710.4" opacity="0.4" fill="#59595A" width="14" height="47.9"/>
	<rect x="261.4" y="710.4" opacity="0.4" fill="#59595A" width="14" height="47.9"/>
	<path opacity="0.3" fill="#5B5B5F" enable-background="new    " d="M866.9,726.4V650h-29.6l0,0c0,12.6-10.2,22.7-22.7,22.7
		c-12.6,0-22.7-10.2-22.7-22.7l0,0l-658.6,0v76.4c0,17.6,14.3,31.9,31.9,31.9h669.9C852.6,758.3,866.9,744,866.9,726.4z"/>
	<rect x="202.4" y="710.4" opacity="0.4" fill="#59595A" width="14" height="47.9"/>
</g>
<g>
	<g>
		<path fill="#DBAC4D" d="M289.6,268.5h559.1c10,0,18.1,8.1,18.1,18.1v166.7c0,10-8.1,18.1-18.1,18.1H289.6V268.5z"/>
		<polygon fill="#E0D492" points="289.6,268.5 133.1,370 289.6,471.5 		"/>
		<polygon fill="#C47533" points="133.1,370 184.4,336.7 184.4,403.2 		"/>
	</g>
	<path opacity="0.2" fill="#5B5B5F" enable-background="new    " d="M289.6,471.5L133.1,370h733.7v83.2c0,10.1-8.2,18.3-18.3,18.3
		L289.6,471.5z"/>
</g>
</svg>
