<?xml version="1.0" encoding="utf-8"?>
<!-- Generator: Adobe Illustrator 18.0.0, SVG Export Plug-In . SVG Version: 6.00 Build 0)  -->
<!DOCTYPE svg PUBLIC "-//W3C//DTD SVG 1.1//EN" "http://www.w3.org/Graphics/SVG/1.1/DTD/svg11.dtd">
<svg version="1.1" id="Layer_1" xmlns="http://www.w3.org/2000/svg" xmlns:xlink="http://www.w3.org/1999/xlink" x="0px" y="0px"
	 viewBox="0 0 1000 1000" enable-background="new 0 0 1000 1000" xml:space="preserve">
<circle fill="#2166AB" cx="500" cy="500" r="500"/>
<rect x="226.4" y="316.9" fill="#646B79" width="547.9" height="536.6"/>
<polygon fill="#F1F3F7" points="941.4,294.3 500,67.2 58.6,294.3 "/>
<polygon fill="#FCFCFD" points="248.3,248.3 500,119.2 751.7,248.3 "/>
<g>
	<rect x="117.8" y="294.3" fill="#DEDEDF" width="764.3" height="44.6"/>
	<rect x="117.8" y="831.6" fill="#DEDEDF" width="764.3" height="44.6"/>
</g>
<g>
	<rect x="78.6" y="874.2" fill="#BDBDBE" width="842.9" height="44.6"/>
	<path fill="#BDBDBE" d="M137.8,339.5v26.6c0,18,14.6,32.6,32.6,32.6h113.2c18,0,32.6-14.6,32.6-32.6v-26.6H137.8z"/>
	<path fill="#BDBDBE" d="M316.2,831.6v-26.6c0-18-14.6-32.6-32.6-32.6H170.4c-18,0-32.6,14.6-32.6,32.6v26.6H316.2z"/>
</g>
<rect x="169.1" y="398.8" fill="#DEDEDF" width="116.5" height="374.2"/>
<g>
	<path fill="#BDBDBE" d="M412.1,339.5v26.6c0,18,14.6,32.6,32.6,32.6h113.8c18,0,32.6-14.6,32.6-32.6v-26.6H412.1z"/>
	<path fill="#BDBDBE" d="M590.5,831.6v-26.6c0-18-14.6-32.6-32.6-32.6H444.1c-18,0-32.6,14.6-32.6,32.6v26.6H590.5z"/>
</g>
<rect x="442.7" y="398.8" fill="#DEDEDF" width="116.5" height="374.2"/>
<g>
	<path fill="#BDBDBE" d="M685.8,339.5v26.6c0,18,14.6,32.6,32.6,32.6h113.8c18,0,32.6-14.6,32.6-32.6v-26.6H685.8z"/>
	<path fill="#BDBDBE" d="M864.2,831.6v-26.6c0-18-14.6-32.6-32.6-32.6H718.4c-18,0-32.6,14.6-32.6,32.6v26.6H864.2z"/>
</g>
<rect x="717" y="398.8" fill="#DEDEDF" width="116.5" height="374.2"/>
</svg>
